<mxfile host="app.diagrams.net" modified="2024-06-23T09:00:22.528Z" agent="Mozilla/5.0 (Macintosh; Intel Mac OS X 10_15_7) AppleWebKit/537.36 (KHTML, like Gecko) Chrome/126.0.0.0 Safari/537.36" etag="M9DDDkwWaJWl57yvspat" version="24.6.2" type="github">
  <diagram name="第 1 页" id="FUUcS7j_mjJhtdsxT7Sj">
    <mxGraphModel dx="761" dy="687" grid="1" gridSize="10" guides="1" tooltips="1" connect="1" arrows="1" fold="1" page="1" pageScale="1" pageWidth="827" pageHeight="1169" math="0" shadow="0">
      <root>
        <mxCell id="0" />
        <mxCell id="1" parent="0" />
        <mxCell id="Bvm49-boHOUipRvoqLUa-1" value="burger" style="swimlane;fontStyle=1;align=center;verticalAlign=top;childLayout=stackLayout;horizontal=1;startSize=26;horizontalStack=0;resizeParent=1;resizeParentMax=0;resizeLast=0;collapsible=1;marginBottom=0;whiteSpace=wrap;html=1;" vertex="1" parent="1">
          <mxGeometry x="110" y="310" width="190" height="120" as="geometry" />
        </mxCell>
        <mxCell id="Bvm49-boHOUipRvoqLUa-2" value="- name: str&lt;div&gt;- price: float&lt;/div&gt;" style="text;strokeColor=none;fillColor=none;align=left;verticalAlign=top;spacingLeft=4;spacingRight=4;overflow=hidden;rotatable=0;points=[[0,0.5],[1,0.5]];portConstraint=eastwest;whiteSpace=wrap;html=1;" vertex="1" parent="Bvm49-boHOUipRvoqLUa-1">
          <mxGeometry y="26" width="190" height="44" as="geometry" />
        </mxCell>
        <mxCell id="Bvm49-boHOUipRvoqLUa-3" value="" style="line;strokeWidth=1;fillColor=none;align=left;verticalAlign=middle;spacingTop=-1;spacingLeft=3;spacingRight=3;rotatable=0;labelPosition=right;points=[];portConstraint=eastwest;strokeColor=inherit;" vertex="1" parent="Bvm49-boHOUipRvoqLUa-1">
          <mxGeometry y="70" width="190" height="8" as="geometry" />
        </mxCell>
        <mxCell id="Bvm49-boHOUipRvoqLUa-4" value="+&amp;nbsp;&lt;span style=&quot;background-color: initial;&quot;&gt;__init__(name: str, price: float)&amp;nbsp;&lt;/span&gt;&lt;div&gt;+ get_price() -&amp;gt; float&lt;/div&gt;" style="text;strokeColor=none;fillColor=none;align=left;verticalAlign=top;spacingLeft=4;spacingRight=4;overflow=hidden;rotatable=0;points=[[0,0.5],[1,0.5]];portConstraint=eastwest;whiteSpace=wrap;html=1;" vertex="1" parent="Bvm49-boHOUipRvoqLUa-1">
          <mxGeometry y="78" width="190" height="42" as="geometry" />
        </mxCell>
        <mxCell id="Bvm49-boHOUipRvoqLUa-5" value="order" style="swimlane;fontStyle=1;align=center;verticalAlign=top;childLayout=stackLayout;horizontal=1;startSize=26;horizontalStack=0;resizeParent=1;resizeParentMax=0;resizeLast=0;collapsible=1;marginBottom=0;whiteSpace=wrap;html=1;" vertex="1" parent="1">
          <mxGeometry x="370" y="100" width="400" height="240" as="geometry" />
        </mxCell>
        <mxCell id="Bvm49-boHOUipRvoqLUa-6" value="&lt;div&gt;- menu: dict&lt;/div&gt;&lt;div&gt;- order: dict&lt;/div&gt;" style="text;strokeColor=none;fillColor=none;align=left;verticalAlign=top;spacingLeft=4;spacingRight=4;overflow=hidden;rotatable=0;points=[[0,0.5],[1,0.5]];portConstraint=eastwest;whiteSpace=wrap;html=1;" vertex="1" parent="Bvm49-boHOUipRvoqLUa-5">
          <mxGeometry y="26" width="400" height="44" as="geometry" />
        </mxCell>
        <mxCell id="Bvm49-boHOUipRvoqLUa-7" value="" style="line;strokeWidth=1;fillColor=none;align=left;verticalAlign=middle;spacingTop=-1;spacingLeft=3;spacingRight=3;rotatable=0;labelPosition=right;points=[];portConstraint=eastwest;strokeColor=inherit;" vertex="1" parent="Bvm49-boHOUipRvoqLUa-5">
          <mxGeometry y="70" width="400" height="8" as="geometry" />
        </mxCell>
        <mxCell id="Bvm49-boHOUipRvoqLUa-8" value="&lt;div&gt;+ __init__()&lt;/div&gt;&lt;div&gt;+ display_menu()&lt;/div&gt;&lt;div&gt;+ get_inputs()&lt;/div&gt;&lt;div&gt;+ calculate(person: Person) -&amp;gt; tuple&lt;/div&gt;&lt;div&gt;+ print_bill(total_cost: float, cost_before_tax: float, tax_amount: float)&lt;/div&gt;&lt;div&gt;+ save_to_file(total_cost: float, cost_before_tax: float, tax_amount: float)&lt;/div&gt;&lt;div&gt;+ create_order()&lt;/div&gt;&lt;div&gt;+ read_order()&lt;/div&gt;&lt;div&gt;+ update_order()&lt;/div&gt;&lt;div&gt;+ delete_order(item_number: int)&lt;/div&gt;" style="text;strokeColor=none;fillColor=none;align=left;verticalAlign=top;spacingLeft=4;spacingRight=4;overflow=hidden;rotatable=0;points=[[0,0.5],[1,0.5]];portConstraint=eastwest;whiteSpace=wrap;html=1;" vertex="1" parent="Bvm49-boHOUipRvoqLUa-5">
          <mxGeometry y="78" width="400" height="162" as="geometry" />
        </mxCell>
        <mxCell id="Bvm49-boHOUipRvoqLUa-9" value="person" style="swimlane;fontStyle=1;align=center;verticalAlign=top;childLayout=stackLayout;horizontal=1;startSize=26;horizontalStack=0;resizeParent=1;resizeParentMax=0;resizeLast=0;collapsible=1;marginBottom=0;whiteSpace=wrap;html=1;" vertex="1" parent="1">
          <mxGeometry x="260" y="580" width="220" height="100" as="geometry" />
        </mxCell>
        <mxCell id="Bvm49-boHOUipRvoqLUa-10" value="- role: str" style="text;strokeColor=none;fillColor=none;align=left;verticalAlign=top;spacingLeft=4;spacingRight=4;overflow=hidden;rotatable=0;points=[[0,0.5],[1,0.5]];portConstraint=eastwest;whiteSpace=wrap;html=1;" vertex="1" parent="Bvm49-boHOUipRvoqLUa-9">
          <mxGeometry y="26" width="220" height="26" as="geometry" />
        </mxCell>
        <mxCell id="Bvm49-boHOUipRvoqLUa-11" value="" style="line;strokeWidth=1;fillColor=none;align=left;verticalAlign=middle;spacingTop=-1;spacingLeft=3;spacingRight=3;rotatable=0;labelPosition=right;points=[];portConstraint=eastwest;strokeColor=inherit;" vertex="1" parent="Bvm49-boHOUipRvoqLUa-9">
          <mxGeometry y="52" width="220" height="8" as="geometry" />
        </mxCell>
        <mxCell id="Bvm49-boHOUipRvoqLUa-12" value="+&amp;nbsp;&lt;span style=&quot;background-color: initial;&quot;&gt;__init__(role: str)&lt;/span&gt;&lt;div&gt;+ calculate_tax(amount: float) -&amp;gt; float&lt;/div&gt;" style="text;strokeColor=none;fillColor=none;align=left;verticalAlign=top;spacingLeft=4;spacingRight=4;overflow=hidden;rotatable=0;points=[[0,0.5],[1,0.5]];portConstraint=eastwest;whiteSpace=wrap;html=1;" vertex="1" parent="Bvm49-boHOUipRvoqLUa-9">
          <mxGeometry y="60" width="220" height="40" as="geometry" />
        </mxCell>
      </root>
    </mxGraphModel>
  </diagram>
</mxfile>
